<svg xmlns="http://www.w3.org/2000/svg" xmlns:xlink="http://www.w3.org/1999/xlink" viewBox="0 0 256 75.85"><defs><style>.cls-1,.cls-4{fill:#fff;}.cls-2{fill:#a6a5a5;}.cls-3{fill:#010101;}.cls-4{opacity:0.1;}.cls-5{fill:url(#linear-gradient);}.cls-6{fill:url(#linear-gradient-2);}.cls-7{fill:url(#linear-gradient-3);}.cls-8{fill:url(#linear-gradient-4);}</style><linearGradient id="linear-gradient" x1="38.86" y1="15.26" x2="38.86" y2="61.4" gradientUnits="userSpaceOnUse"><stop offset="0" stop-color="#267caf"/><stop offset="0.29" stop-color="#4a92b4"/><stop offset="0.77" stop-color="#79bcba"/><stop offset="1" stop-color="#88cebc"/></linearGradient><linearGradient id="linear-gradient-2" x1="62.73" y1="33" x2="57.1" y2="45.73" gradientUnits="userSpaceOnUse"><stop offset="0" stop-color="#f48879"/><stop offset="0.12" stop-color="#f5907a"/><stop offset="0.71" stop-color="#fbb777"/><stop offset="1" stop-color="#fdc874"/></linearGradient><linearGradient id="linear-gradient-3" x1="54.36" y1="42.68" x2="29.04" y2="63.15" gradientUnits="userSpaceOnUse"><stop offset="0" stop-color="#eb413d"/><stop offset="0.17" stop-color="#d94452"/><stop offset="0.57" stop-color="#af487a"/><stop offset="0.86" stop-color="#954b92"/><stop offset="1" stop-color="#894a9c"/></linearGradient><linearGradient id="linear-gradient-4" x1="30.83" y1="16.51" x2="55.05" y2="35" gradientUnits="userSpaceOnUse"><stop offset="0" stop-color="#54c0ac"/><stop offset="1" stop-color="#dde79a"/></linearGradient></defs><title>Google_Play</title><g id="Layer_2" data-name="Layer 2"><g id="Layer_1-2" data-name="Layer 1"><g id="Google_Play" data-name="Google Play"><path class="cls-1" d="M254.3,66.9A7.26,7.26,0,0,1,247,74.16H9A7.26,7.26,0,0,1,1.69,66.9V9A7.27,7.27,0,0,1,9,1.69H247A7.27,7.27,0,0,1,254.3,9h0V66.9Z"/><path class="cls-2" d="M247,75.85H9A9,9,0,0,1,0,66.9V9A9,9,0,0,1,9,0H247a9,9,0,0,1,9,9V66.9a9,9,0,0,1-9,8.95Z"/><path class="cls-3" d="M254.3,66.9A7.26,7.26,0,0,1,247,74.16H9A7.26,7.26,0,0,1,1.69,66.9V9A7.27,7.27,0,0,1,9,1.69H247A7.27,7.27,0,0,1,254.3,9h0V66.9Z"/><path class="cls-4" d="M247,0H119.52l49.94,75.85H247a9,9,0,0,0,9-9V9A9,9,0,0,0,247,0Z"/><path class="cls-1" d="M90.46,22.93a5.05,5.05,0,0,1-1.3,3.71,5.75,5.75,0,0,1-9.83-4.08,5.7,5.7,0,0,1,5.75-5.75,5,5,0,0,1,2.23.56A4,4,0,0,1,89,18.67l-.92.92a3.48,3.48,0,0,0-3-1.3,3.73,3.73,0,0,0-3,1.3,3.84,3.84,0,0,0-1.29,3.15,3.85,3.85,0,0,0,1.29,3.16,4.79,4.79,0,0,0,3,1.29,4.07,4.07,0,0,0,3.15-1.29,3.07,3.07,0,0,0,.93-2.23H85.08V22.19h5.38v.74ZM99,18.29H94v3.53h4.64v1.3H94v3.52h5v1.48H92.5V17H99Zm6.12,9.83h-1.49V18.29h-3.15V17h7.79v1.29h-3.15Zm8.52,0V17h1.49V28.12Zm7.79,0h-1.48V18.29h-3.15V17h7.6v1.29h-3.15v9.83ZM139,26.64a5.75,5.75,0,0,1-9.83-4.08,5.75,5.75,0,1,1,11.49,0A5.45,5.45,0,0,1,139,26.64Zm-7-.93a4.37,4.37,0,0,0,3,1.3,3.67,3.67,0,0,0,3-1.3,4.47,4.47,0,0,0,1.3-3.15,3.8,3.8,0,0,0-1.3-3.15,4.37,4.37,0,0,0-3-1.3,3.68,3.68,0,0,0-3,1.3,4.47,4.47,0,0,0-1.3,3.15A3.8,3.8,0,0,0,132,25.71Zm10.75,2.41V17h1.67l5.38,8.71V17h1.48V28.12h-1.48L144,19v9.08Z"/><path class="cls-1" d="M128.84,42a7.79,7.79,0,0,0-8,8,7.91,7.91,0,0,0,8,8,7.8,7.8,0,0,0,8-8A7.69,7.69,0,0,0,128.84,42Zm0,12.6a4.84,4.84,0,0,1,0-9.64,4.49,4.49,0,0,1,4.45,4.82A4.6,4.6,0,0,1,128.84,54.63ZM111.59,42a7.79,7.79,0,0,0-8,8,7.91,7.91,0,0,0,8,8,7.81,7.81,0,0,0,8-8A7.7,7.7,0,0,0,111.59,42Zm0,12.6a4.84,4.84,0,0,1,0-9.64A4.49,4.49,0,0,1,116,49.81,4.6,4.6,0,0,1,111.59,54.63ZM91,44.44v3.33h8A7,7,0,0,1,97.13,52,8.2,8.2,0,0,1,91,54.45a8.63,8.63,0,0,1-8.71-8.9A8.74,8.74,0,0,1,91,36.65a9.17,9.17,0,0,1,6.12,2.41l2.41-2.41a11.89,11.89,0,0,0-8.34-3.34A12.5,12.5,0,0,0,78.78,45.55,12.51,12.51,0,0,0,91.2,57.79a10.68,10.68,0,0,0,8.53-3.53,11.15,11.15,0,0,0,3-7.78,7.11,7.11,0,0,0-.18-2ZM175.19,47c-.74-1.85-2.59-5-6.67-5s-7.42,3.15-7.42,8a7.76,7.76,0,0,0,7.79,8,7.62,7.62,0,0,0,6.49-3.52l-2.6-1.86a4.52,4.52,0,0,1-3.89,2.23,4,4,0,0,1-3.9-2.41L175.56,48l-.37-.93Zm-10.75,2.6A4.51,4.51,0,0,1,168.52,45a3.27,3.27,0,0,1,3,1.67l-7,3Zm-8.72,7.6h3.53V34.05h-3.53Zm-5.56-13.54a6.13,6.13,0,0,0-4.26-1.85,8,8,0,0,0-7.61,8,7.69,7.69,0,0,0,7.61,7.79A5.33,5.33,0,0,0,150,55.75h.19v1.11c0,3-1.67,4.63-4.26,4.63a4.12,4.12,0,0,1-3.9-2.78L139,60a7.64,7.64,0,0,0,7,4.64c4.08,0,7.42-2.41,7.42-8.16V42.4h-3.34v1.29Zm-4.08,10.94a4.84,4.84,0,0,1,0-9.64c2.41,0,4.27,2,4.27,4.82S148.49,54.63,146.08,54.63Zm45.24-20.58H183V57.23h3.52V48.52h4.82a7.24,7.24,0,1,0,0-14.47Zm.19,11.13h-5v-8h5a4.07,4.07,0,0,1,4.08,3.89,4.25,4.25,0,0,1-4.08,4.08Zm21.32-3.34c-2.6,0-5.19,1.11-6.12,3.52l3.15,1.3A3.28,3.28,0,0,1,213,45a3.48,3.48,0,0,1,3.7,3v.18a7.35,7.35,0,0,0-3.52-.92c-3.34,0-6.67,1.85-6.67,5.19,0,3.15,2.78,5.19,5.74,5.19a5.21,5.21,0,0,0,4.45-2.22h.19v1.85h3.34v-8.9c-.37-4.08-3.53-6.49-7.42-6.49Zm-.37,12.79c-1.11,0-2.78-.55-2.78-2,0-1.85,2-2.41,3.71-2.41a7.19,7.19,0,0,1,3.15.75A4.32,4.32,0,0,1,212.46,54.63ZM231.93,42.4l-3.9,10h-.18l-4.08-10h-3.71l6.12,14.09-3.52,7.79h3.52l9.46-21.88ZM200.78,57.23h3.52V34.05h-3.52Z"/><path class="cls-5" d="M27.55,15.39a3.68,3.68,0,0,0-.74,2.6V59a3.66,3.66,0,0,0,.93,2.6l.18.19,23-23v-.37Z"/><path class="cls-6" d="M58.33,46.54l-7.6-7.6v-.56l7.6-7.6.19.19,9.08,5.19c2.6,1.48,2.6,3.89,0,5.38Z"/><path class="cls-7" d="M58.52,46.36l-7.79-7.79L27.55,61.75c.93.92,2.23.92,3.9.18L58.52,46.36"/><path class="cls-8" d="M58.52,30.78,31.45,15.39c-1.67-.93-3-.74-3.9.19l23.18,23,7.79-7.79Z"/></g></g></g></svg>