<svg width="108" height="63" viewBox="0 0 108 63" fill="none" xmlns="http://www.w3.org/2000/svg">
<path d="M50.8252 2.14865C53.1293 1.0955 54.2814 0.568921 55.4957 0.627653C56.7101 0.686385 57.8059 1.32168 59.9977 2.59228L107.105 29.9017C107.589 30.1822 107.371 30.9235 106.813 30.8973V30.8973C106.734 30.8937 106.658 30.8729 106.589 30.8365L59.4423 6.04108C57.414 4.97432 56.3998 4.44095 55.2933 4.38767C54.1869 4.3344 53.1261 4.76788 51.0047 5.63484L30.6361 13.9587C30.4892 14.0187 30.4111 14.1797 30.4548 14.3321V14.3321C30.5032 14.5011 30.402 14.6766 30.2315 14.7193L26.7306 15.5964C26.5554 15.6402 26.3836 15.6966 26.2165 15.7649L1.41463 25.9005C1.34307 25.9297 1.266 25.943 1.18879 25.9393V25.9393C0.632364 25.9132 0.486271 25.1573 0.992897 24.9257L13.6851 19.1244C15.4461 18.3195 16.3539 16.3478 15.8205 14.4865L15.127 12.0669C14.6413 10.3721 14.3984 9.5247 14.4102 8.78187C14.4377 7.05417 15.3553 5.46309 16.8369 4.57401C17.4739 4.19175 18.329 3.97753 20.0392 3.5491L22.3113 2.9799C24.8555 2.34254 27.447 3.837 28.1696 6.35833V6.35833C28.9893 9.21853 32.1618 10.6792 34.8679 9.44233L50.8252 2.14865Z" fill="white"/>
<path d="M24 31.8C24 31.3582 23.6418 31 23.2 31H16C13.1997 31 11.7996 31 10.73 31.545C9.78924 32.0243 9.02433 32.7892 8.54497 33.73C8 34.7996 8 36.1997 8 39V41.4C8 42.95 8 43.7249 8.17037 44.3608C8.63271 46.0862 9.98044 47.434 11.7059 47.8963C12.3417 48.0667 13.1167 48.0667 14.6667 48.0667V48.0667C16.2166 48.0667 16.9916 48.0667 17.6274 48.237C19.3529 48.6994 20.7006 50.0471 21.163 51.7726C21.3333 52.4084 21.3333 53.1834 21.3333 54.7333V54.7333C21.3333 56.2833 21.3333 57.0583 21.163 57.6941C20.7006 59.4195 19.3529 60.7673 17.6274 61.2296C16.9916 61.4 16.2166 61.4 14.6667 61.4H8.8C8.35817 61.4 8 61.7582 8 62.2V62.2C8 62.6418 8.35817 63 8.8 63H16C18.8003 63 20.2004 63 21.27 62.455C22.2108 61.9757 22.9757 61.2108 23.455 60.27C24 59.2004 24 57.8003 24 55V52.6C24 51.05 24 50.2751 23.8296 49.6392C23.3673 47.9138 22.0196 46.566 20.2941 46.1037C19.6583 45.9333 18.8833 45.9333 17.3333 45.9333V45.9333C15.7834 45.9333 15.0084 45.9333 14.3726 45.763C12.6471 45.3006 11.2994 43.9529 10.837 42.2274C10.6667 41.5916 10.6667 40.8166 10.6667 39.2667V39.2667C10.6667 37.7167 10.6667 36.9417 10.837 36.3059C11.2994 34.5805 12.6471 33.2327 14.3726 32.7704C15.0084 32.6 15.7834 32.6 17.3333 32.6H23.2C23.6418 32.6 24 32.2418 24 31.8V31.8Z" fill="white"/>
<path d="M100 31.8C100 31.3582 99.6418 31 99.2 31H92C89.1997 31 87.7996 31 86.73 31.545C85.7892 32.0243 85.0243 32.7892 84.545 33.73C84 34.7996 84 36.1997 84 39V41.4C84 42.95 84 43.7249 84.1704 44.3608C84.6327 46.0862 85.9804 47.434 87.7059 47.8963C88.3417 48.0667 89.1167 48.0667 90.6667 48.0667V48.0667C92.2166 48.0667 92.9916 48.0667 93.6274 48.237C95.3529 48.6994 96.7006 50.0471 97.163 51.7726C97.3333 52.4084 97.3333 53.1834 97.3333 54.7333V54.7333C97.3333 56.2833 97.3333 57.0583 97.163 57.6941C96.7006 59.4195 95.3529 60.7673 93.6274 61.2296C92.9916 61.4 92.2166 61.4 90.6667 61.4H84.8C84.3582 61.4 84 61.7582 84 62.2V62.2C84 62.6418 84.3582 63 84.8 63H92C94.8003 63 96.2004 63 97.27 62.455C98.2108 61.9757 98.9757 61.2108 99.455 60.27C100 59.2004 100 57.8003 100 55V52.6C100 51.05 100 50.2751 99.8296 49.6392C99.3673 47.9138 98.0196 46.566 96.2941 46.1037C95.6583 45.9333 94.8833 45.9333 93.3333 45.9333V45.9333C91.7834 45.9333 91.0084 45.9333 90.3726 45.763C88.6471 45.3006 87.2994 43.9529 86.837 42.2274C86.6667 41.5916 86.6667 40.8166 86.6667 39.2667V39.2667C86.6667 37.7167 86.6667 36.9417 86.837 36.3059C87.2994 34.5805 88.6471 33.2327 90.3726 32.7704C91.0084 32.6 91.7834 32.6 93.3333 32.6H99.2C99.6418 32.6 100 32.2418 100 31.8V31.8Z" fill="white"/>
<path d="M54 33C54 31.8954 53.1046 31 52 31V31C50.8954 31 50 31.8954 50 33V61C50 62.1046 50.8954 63 52 63V63C53.1046 63 54 62.1046 54 61V33Z" fill="white"/>
</svg>
